M48
;DRILL FILE GENERATED BY KICAD
;FOR: SILENT-001 Subvocalization Interface
;UNIT: MM
;DATE: 2026-03-28
FMAT 2
METRIC
T1C0.300
T2C0.800
T3C1.000
T4C3.200
%
T1
X10000Y10000
X10000Y20000
X10000Y25000
X20000Y10000
X20000Y20000
X30000Y10000
X30000Y20000
X40000Y10000
X40000Y20000
X50000Y10000
X50000Y20000
X50000Y25000
T2
X5000Y5000
X5000Y30000
X45000Y5000
X45000Y30000
T3
X10000Y33000
X20000Y33000
X30000Y33000
X40000Y33000
T4
X2500Y2500
X47500Y2500
X2500Y32500
X47500Y32500
M30
